<svg width="48" height="30" viewBox="0 0 48 30" fill="none" xmlns="http://www.w3.org/2000/svg">
<path d="M47.5562 3.65042C45.8218 4.23026 43.9737 4.61459 42.0469 4.8012C44.0291 3.89924 45.542 2.48186 46.2532 0.77346C44.4051 1.61322 42.3647 2.20639 40.1901 2.5374C38.4353 1.11336 35.9343 0.231392 33.2059 0.231392C27.9123 0.231392 23.6507 3.50602 23.6507 7.52043C23.6507 8.09805 23.7148 8.65344 23.8722 9.18218C15.9232 8.88671 8.88938 5.98309 4.16425 1.5599C3.33932 2.6507 2.85543 3.89924 2.85543 5.2433C2.85543 7.76703 4.56068 10.0042 7.10252 11.2994C5.56634 11.2771 4.05931 10.9372 2.78256 10.4018C2.78256 10.4241 2.78256 10.4529 2.78256 10.4818C2.78256 14.023 6.09686 16.9644 10.4431 17.642C9.66476 17.8042 8.81651 17.8819 7.93619 17.8819C7.32405 17.8819 6.70608 17.8553 6.12601 17.7575C7.36486 20.6434 10.8803 22.765 15.0603 22.8339C11.8072 24.7733 7.67676 25.9419 3.20523 25.9419C2.42111 25.9419 1.66905 25.9152 0.916992 25.8419C5.15241 27.9235 10.172 29.1121 15.585 29.1121C33.1797 29.1121 42.799 18.0041 42.799 8.37574C42.799 8.05361 42.7844 7.74259 42.764 7.43379C44.6617 6.40741 46.2561 5.12556 47.5562 3.65042Z" fill="black"/>
</svg>
