<svg width="47" height="36" viewBox="0 0 47 36" fill="none" xmlns="http://www.w3.org/2000/svg">
    <path fill-rule="evenodd" clip-rule="evenodd"
        d="M14.9224 0H32.4121C40.4603 0 46.9869 4.97414 46.9869 11.108V24.4375C46.9869 30.5713 40.4603 35.5455 32.4121 35.5455H14.9224C6.87423 35.5455 0.347656 30.5713 0.347656 24.4375V11.108C0.347656 4.97414 6.87423 0 14.9224 0ZM32.4159 32.2131C38.0418 32.2131 42.6182 28.7252 42.6182 24.4375V11.1079C42.6182 6.82027 38.0418 3.33237 32.4159 3.33237H14.9262C9.30036 3.33237 4.72389 6.82027 4.72389 11.1079V24.4375C4.72389 28.7252 9.30036 32.2131 14.9262 32.2131H32.4159Z"
        fill="black" />
    <path fill-rule="evenodd" clip-rule="evenodd"
        d="M12.0156 17.7727C12.0156 12.8652 17.2363 8.88635 23.6754 8.88635C30.1146 8.88635 35.3352 12.8652 35.3352 17.7727C35.3352 22.6802 30.1146 26.6591 23.6754 26.6591C17.2363 26.6591 12.0156 22.6802 12.0156 17.7727ZM16.3919 17.7727C16.3919 20.8341 19.6624 23.3267 23.6792 23.3267C27.696 23.3267 30.9666 20.8341 30.9666 17.7727C30.9666 14.7091 27.696 12.2187 23.6792 12.2187C19.6624 12.2187 16.3919 14.7091 16.3919 17.7727Z"
        fill="black" />
    <ellipse cx="36.2148" cy="8.22005" rx="1.55367" ry="1.18411" fill="black" />
</svg>